<?xml version="1.0" standalone="no"?>
<!DOCTYPE svg PUBLIC "-//W3C//DTD SVG 20010904//EN"
 "http://www.w3.org/TR/2001/REC-SVG-20010904/DTD/svg10.dtd">
<svg version="1.0" xmlns="http://www.w3.org/2000/svg"
 width="128.000000pt" height="128.000000pt" viewBox="0 0 128.000000 128.000000"
 preserveAspectRatio="xMidYMid meet">

<g transform="translate(0.000000,128.000000) scale(0.100000,-0.100000)"
fill="#000000" stroke="none">
<path d="M585 1184 c-104 -26 -188 -81 -239 -158 -57 -86 -67 -143 -64 -367
l3 -194 42 -3 42 -3 3 218 c3 202 5 221 25 259 57 107 135 157 245 157 108 0
193 -52 249 -153 10 -18 15 -84 19 -250 l5 -225 43 -3 42 -3 0 220 c0 198 -2
226 -21 276 -45 122 -180 221 -311 230 -35 2 -72 2 -83 -1z"/>
<path d="M564 906 l-34 -34 0 -136 0 -136 115 0 115 0 0 125 c0 141 -10 174
-60 200 -50 26 -97 20 -136 -19z"/>
<path d="M626 544 c-9 -23 -8 -24 25 -24 24 0 30 3 25 16 -3 9 -6 18 -6 20 0
12 -39 2 -44 -12z"/>
<path d="M597 450 c-5 -18 -1 -20 50 -20 46 0 54 3 51 18 -2 13 -15 18 -49 20
-40 3 -47 0 -52 -18z"/>
<path d="M580 355 c0 -12 14 -15 76 -15 56 0 75 3 72 13 -3 8 -30 13 -76 15
-60 2 -72 0 -72 -13z"/>
</g>
</svg>
